<svg xmlns="http://www.w3.org/2000/svg" xmlns:xlink="http://www.w3.org/1999/xlink" style="vertical-align:-2.38ex" width="43.615ex" height="9.009ex" viewBox="0 -2854.4 18778.5 3879"><defs><path id="n" stroke-width="1" d="M213 578l-13-5q-14-5-40-10t-58-7H83v46h19q47 2 87 15t56 24 28 22q2 3 12 3 9 0 17-6V361l1-300q7-7 12-9t24-4 62-2h26V0h-11q-21 3-159 3-136 0-157-3H88v46h64q16 0 25 1t16 3 8 2 6 5 6 4v517z"/><path id="a" stroke-width="1" d="M228 637q-34 0-36 4-1 2-1 8 0 24 11 33 2 1 15 1 54-3 127-3 141 0 162 3h12q6-6 6-9t-2-18q-5-15-9-19h-38q-69-1-81-9-7-4-14-28t-67-264q-16-65-34-138T252 88l-9-36q0-4 9-4t59-2h17q32 0 51 1t49 7 50 18 44 34 42 55q16 30 30 67t17 42q5 3 17 3h13q6-9 6-11t-20-59-44-120-26-74q-2-5-4-6t-16-3-43-1h-76q-65 0-124 1H116Q32 0 32 10q0 7 2 14 5 19 10 21 4 1 15 1h6q27 0 60 3 14 3 19 12 3 4 72 278t69 289q0 7-57 9z"/><path id="i" stroke-width="1" d="M230 637q-27 0-32 1t-5 11q0 27 11 33 2 1 174 1 172-1 186-3 56-8 94-28t54-46 21-43 6-34q0-45-29-84t-67-60-67-34-38-13l7-5q67-38 67-110 0-11-5-61t-5-82v-9q0-18 1-28t11-18 26-9q28 0 46 22t26 47q5 14 8 17t15 3q20 0 20-12 0-18-24-57-38-57-90-57h-9q-61 0-101 25t-44 78q0 27 15 84t15 73q0 51-43 74-15 7-25 8t-71 2h-69l-32-130Q244 61 244 59q0-4 1-5t7-4 17-2 33-2h31q6-8 6-9t-3-18q-4-13-10-19h-15q-36 2-131 2H71Q54 2 50 1q-17 0-17 9 0 2 3 14 5 19 10 21 4 1 15 1h6q27 0 60 3 14 3 19 12 3 4 72 278t69 289q0 7-57 9zm400-83q0 32-21 54t-86 28h-23q-21 0-38 1h-22q-47 0-54-10-1-3-34-133t-33-133q0-1 69-1 78 1 104 7 64 10 100 59 16 23 27 60t11 68z"/><path id="c" stroke-width="1" d="M109 429q-27 0-43 18t-16 44q0 71 53 123t132 52q91 0 152-56t62-145q0-43-20-82t-48-68-80-74q-36-31-100-92l-59-56 76-1q157 0 167 5 7 2 24 89v3h40v-3q-1-3-13-91T421 3V0H50v31q0 7 6 15t30 35q29 32 50 56 9 10 34 37t34 37 29 33 28 34 23 30 21 32 15 29 13 32 7 30 3 33q0 63-34 109t-97 46q-33 0-58-17t-35-33-10-19q0-1 5-1 18 0 37-14t19-46q0-25-16-42t-45-18z"/><path id="j" stroke-width="1" d="M164 157q0-24-16-40t-39-16h-7q46-79 122-79 70 0 102 60 19 33 19 128 0 103-27 139-26 33-58 33h-6q-78 0-118-68-4-7-7-8t-15-2q-17 0-19 6-2 4-2 175v129q0 50 5 50 2 2 4 2 1 0 21-8t55-16 75-8q71 0 136 28 8 4 13 4 8 0 8-18v-13q-82-97-205-97-31 0-56 6l-10 2V374q19 14 30 22t36 16 51 8q81 0 137-65t56-154q0-92-64-157T229-22q-81 0-130 54T50 154q0 24 11 38t23 18 23 4q25 0 41-17t16-40z"/><path id="h" stroke-width="1" d="M152 251q0 395 236 599h28q6-6 6-9 0-4-19-25t-46-63-55-104-47-167-19-232q0-126 19-231t46-166 55-104 47-64 19-25q0-3-6-9h-28q-29 24-56 53t-61 83-59 116-42 153-18 195z"/><path id="k" stroke-width="1" d="M305 251q0-396-236-600H56q-13 0-17 2t-4 9q2 5 25 31t48 68 52 103 44 163 17 223-17 223-44 163-52 104-48 67-25 32q0 11 15 11h19q128-107 187-284 49-141 49-315z"/><path id="d" stroke-width="1" d="M78 60q0 24 17 42t43 18q24 0 42-16t19-43q0-25-17-43T139 0 96 17 78 60z"/><path id="l" stroke-width="1" d="M56 237v13l14 20h299v150l1 150q10 13 19 13 13 0 20-15V270h298q15-8 15-20t-15-20H409V-68q-8-14-18-14h-4q-12 0-18 14v298H70q-14 7-14 20z"/><path id="b" stroke-width="1" d="M56 347q0 13 14 20h637q15-8 15-20 0-11-14-19l-318-1H72q-16 5-16 20zm0-194q0 15 16 20h636q14-10 14-20 0-13-15-20H70q-14 7-14 20z"/><path id="o" stroke-width="1" d="M50 252q0 115 67 221t169 168 204 63q90 0 143-51 9-10 15-17t8-10l1-3q3 0 27 26 7 6 15 14t16 16 10 11l15 15h6q14 0 14-7 0-4-32-137-36-139-36-140-2-5-5-6t-18-2h-16q-6 6-6 9 0 1 1 7t2 20 1 32q0 71-32 124t-109 54q-18 0-39-3t-53-13-61-28-63-48-58-71-47-102-31-134q-2-18-2-39 0-48 14-85t36-57 50-34 52-17 45-4q54 0 99 23t62 59q3 8 15 55t12 53q0 8-13 10t-60 3h-37q-6 6-6 8t2 19q4 13 10 19h17q40-2 140-2h65q25 0 36 1t12 0q14 0 14-9 0-2-2-14-5-19-10-21-3-1-15-1-20 0-41-3-7-3-10-9t-14-51q-9-33-15-56Q589 6 586 3q-2-2-5-2-10 0-28 20t-23 31q0 1-2 0t-6-5q-74-69-200-69-121 0-196 77T50 252z"/><path id="m" stroke-width="1" d="M180 96v154l25 291 61 229 87 174 91 125 83 81h28q6-6 6-9 0-4-16-21t-41-48-57-77-61-117-56-157-42-208-16-262q0-118 8-195 13-143 46-265t73-196 76-126 61-78 25-31q0-3-6-9h-28q-44 37-84 81t-90 125-87 173-61 229z"/><path id="p" stroke-width="1" d="M35 1138q0 12 16 12h18q44-37 84-81t90-125 87-173 61-230 25-291-25-290-61-230-87-173-91-125-83-81H56q-13 0-17 2t-4 10q30 30 75 89Q283-316 316 56q8 77 8 195 0 117-8 194-38 432-268 678-12 14-13 15z"/><path id="q" stroke-width="1" d="M96 585q56 81 153 81 48 0 96-26t78-92q37-83 37-228 0-155-43-237-20-42-55-67t-61-31-51-7q-26 0-52 6t-61 32-55 67q-43 82-43 237 0 174 57 265zm225 12q-30 32-71 32-42 0-72-32-25-26-33-72t-8-192q0-158 8-208t36-79q28-30 69-30 40 0 68 30 29 30 36 84t8 203q0 145-8 191t-33 73z"/><path id="r" stroke-width="1" d="M42 313q0 163 81 258t180 95q69 0 99-36t30-80q0-25-14-40t-39-15q-23 0-38 14t-15 39q0 44 47 53-22 22-62 25-71 0-117-60-47-66-47-202l1-4q5 6 8 13 41 60 107 60h4q46 0 81-19 24-14 48-40t39-57q21-49 21-107v-18q0-23-5-43-11-59-64-115T253-22q-28 0-54 8t-56 30-51 59-36 97-14 141zm215 84q-30 0-52-17t-34-45-17-57-6-62q0-83 12-119t38-58q24-18 53-18 51 0 78 38 13 18 18 45t5 105q0 80-5 107t-18 45q-27 36-72 36z"/><path id="s" stroke-width="1" d="M231 637q-27 0-32 1t-5 11q0 27 11 33 1 1 130 1 259 0 273-2 63-10 105-45t43-92q0-64-58-115t-133-69l-10-3q64-9 105-46t42-92q0-73-72-141T453 1q-7-1-211-1Q42 0 39 2q-4 3-4 8 0 7 2 14 5 19 10 21 4 1 15 1h6q27 0 60 3 14 3 19 12 3 4 72 278t69 289q0 7-57 9zm418-93q0 30-15 56t-49 34q-7 2-92 3h-42q-22 0-35-1h-13q-15-1-19-10-2-4-32-120 0-3-1-6l-31-126h81q81 0 93 2 60 10 107 58t48 110zm-54-315q0 44-23 73t-60 34q-6 1-83 1-118 0-119-1 0-2-17-73t-35-141l-18-70q0-4 12-4t81-2q89 0 96 1 62 7 114 58t52 124z"/><path id="e" stroke-width="1" d="M702 589q4 12 16 16h343q15-8 15-20 0-13-15-20H742V0q-8-14-18-14h-4q-12 0-18 14v589z"/><path id="g" stroke-width="1" d="M742-871l-5-5-4-4q-1-1-3-2t-6-2-10-1h-12L222 569l-42-85q-42-85-43-85-6 5-13 13l-13 13 154 311L702-586v754l1 754q10 13 19 13 12 0 20-15V-871z"/><path id="f" stroke-width="1" d="M722-14h-2q-12 0-18 14v306l1 306q10 13 19 13 12 0 20-15V0q-8-14-18-14h-2z"/></defs><g fill="currentColor" stroke="currentColor" stroke-width="0" transform="scale(1 -1)"><use xlink:href="#a"/><use x="959" xlink:href="#b"/><g transform="matrix(.5 0 0 .5 2015 903)"><use xlink:href="#c"/><use x="500" xlink:href="#d"/><use x="779" xlink:href="#c"/></g><g transform="translate(2048 2701)"><use y="-606" xlink:href="#e"/><use transform="matrix(1 0 0 1.99996 0 -1822.977)" xlink:href="#f"/><use y="-2739" xlink:href="#g"/></g><path stroke="none" d="M3104 2641h15673v60H3104zM3224 220h15433v60H3224z"/><g transform="translate(3284 1125)"><use xlink:href="#h"/><g transform="translate(578)"><path stroke="none" d="M0 220h1181v60H0z"/><use x="455" y="603" transform="scale(.707)" xlink:href="#i"/><g transform="matrix(.707 0 0 .707 60 -383)"><use xlink:href="#c"/><use x="500" xlink:href="#j"/><use x="1001" xlink:href="#j"/></g></g><use x="1880" y="-1" xlink:href="#k"/><g transform="matrix(.707 0 0 .707 2338 637)"><use xlink:href="#c"/><use x="500" xlink:href="#d"/><use x="779" xlink:href="#c"/></g><use x="3565" xlink:href="#l"/><g transform="translate(4566)"><use xlink:href="#m"/><g transform="translate(597)"><use xlink:href="#n"/><use x="500" xlink:href="#d"/><use x="779" xlink:href="#j"/></g><g transform="translate(1997)"><path stroke="none" d="M0 220h1181v60H0z"/><use x="442" y="604" transform="scale(.707)" xlink:href="#o"/><g transform="matrix(.707 0 0 .707 60 -383)"><use xlink:href="#c"/><use x="500" xlink:href="#j"/><use x="1001" xlink:href="#j"/></g></g><use x="3298" y="-1" xlink:href="#p"/><g transform="matrix(.707 0 0 .707 3896 877)"><use xlink:href="#c"/><use x="500" xlink:href="#d"/><use x="779" xlink:href="#c"/></g></g><use x="9689" xlink:href="#l"/><g transform="translate(10690)"><use xlink:href="#h"/><g transform="translate(458)"><use xlink:href="#q"/><use x="500" xlink:href="#d"/><use x="779" xlink:href="#r"/></g><g transform="translate(1858)"><path stroke="none" d="M0 220h1181v60H0z"/><use x="455" y="582" transform="scale(.707)" xlink:href="#s"/><g transform="matrix(.707 0 0 .707 60 -383)"><use xlink:href="#c"/><use x="500" xlink:href="#j"/><use x="1001" xlink:href="#j"/></g></g><use x="3159" y="-1" xlink:href="#k"/><g transform="matrix(.707 0 0 .707 3618 622)"><use xlink:href="#c"/><use x="500" xlink:href="#d"/><use x="779" xlink:href="#c"/></g></g></g><g transform="translate(7183 -841)"><use xlink:href="#n"/><use x="722" xlink:href="#l"/><g transform="translate(1723)"><use xlink:href="#n"/><use x="500" xlink:href="#d"/><use x="779" xlink:href="#j"/><g transform="matrix(.707 0 0 .707 1279 393)"><use xlink:href="#c"/><use x="500" xlink:href="#d"/><use x="779" xlink:href="#c"/></g></g><use x="4229" xlink:href="#l"/><g transform="translate(5230)"><use xlink:href="#q"/><use x="500" xlink:href="#d"/><use x="779" xlink:href="#r"/><g transform="matrix(.707 0 0 .707 1279 393)"><use xlink:href="#c"/><use x="500" xlink:href="#d"/><use x="779" xlink:href="#c"/></g></g></g></g></svg>